HIERARCHY
ROOT pelvis
{
  OFFSET 0 100 0
  CHANNELS 6 Xposition Yposition Zposition Zrotation Xrotation Yrotation
  JOINT pelvis_right_femur
  {
    OFFSET -10.78128 -3.44521 -0.5502486
    CHANNELS 3 Zrotation Xrotation Yrotation
    JOINT right_femur_tibia
    {
      OFFSET -0.8047443 -44.0398 -0.1307829
      CHANNELS 3 Zrotation Xrotation Yrotation
      JOINT right_tibia_foot
      {
        OFFSET 3.006224 -47.83518 -5
        CHANNELS 3 Zrotation Xrotation Yrotation
        End Site
        {
          OFFSET 0 -5 15
        }
      }
    }
  }
  JOINT pelvis_left_femur
  {
    OFFSET 10.78128 -3.44521 -0.5502486
    CHANNELS 3 Zrotation Xrotation Yrotation
    JOINT left_femur_tibia
    {
      OFFSET 0.8047443 -44.0398 -0.1307829
      CHANNELS 3 Zrotation Xrotation Yrotation
      JOINT left_tibia_foot
      {
        OFFSET -4.370144 -48.10324 -4.275266
        CHANNELS 3 Zrotation Xrotation Yrotation
        End Site
        {
          OFFSET 0 -5 15
        }
      }
    }
  }
  JOINT pelvis_spine1
  {
    OFFSET 0 6.468898 -3.129235
    CHANNELS 3 Zrotation Xrotation Yrotation
    JOINT spine1
    {
      OFFSET 0 23.15396 4.99043
      CHANNELS 3 Zrotation Xrotation Yrotation
      JOINT spine2
      {
        OFFSET 0 20.79997 -5.064912
        CHANNELS 3 Zrotation Xrotation Yrotation
        JOINT neck
        {
          OFFSET 0 14.38658 9.616178
          CHANNELS 3 Zrotation Xrotation Yrotation
          End Site
          {
            OFFSET 0 20 0
          }
        }
      }
      JOINT right_manubrium
      {
        OFFSET -5.722621 16.35077 3.967754
        CHANNELS 3 Zrotation Xrotation Yrotation
        JOINT right_clavicle
        {
          OFFSET -13.16364 1.694482 -4.693211
          CHANNELS 3 Zrotation Xrotation Yrotation
          JOINT right_humerus
          {
            OFFSET -28.5034 -0.3100689 -2.792744
            CHANNELS 3 Zrotation Xrotation Yrotation
            JOINT right_radius
            {
              OFFSET -25.15693 0.02248979 -1.271978
              CHANNELS 3 Zrotation Xrotation Yrotation
              End Site
              {
                OFFSET -15 0 0
              }
            }
          }
        }
      }
      JOINT left_manubrium
      {
        OFFSET 5.722621 16.35077 3.967754
        CHANNELS 3 Zrotation Xrotation Yrotation
        JOINT left_clavicle
        {
          OFFSET 13.16364 1.694482 -4.693211
          CHANNELS 3 Zrotation Xrotation Yrotation
          JOINT left_humerus
          {
            OFFSET 29.39168 -1.063119 -2.237045
            CHANNELS 3 Zrotation Xrotation Yrotation
            JOINT left_radius
            {
              OFFSET 24.59957 -0.9528479 0.9047498
              CHANNELS 3 Zrotation Xrotation Yrotation
              End Site
              {
                OFFSET 15 -0 -0
              }
            }
          }
        }
      }
    }
  }
}
MOTION
Frames: 17
Frame Time: 0.0416666666667
0 103.5113 0 2.012483 -3.117967 0.1052994 1.853318 -9.877087 8.753333 -0 37.85841 -0 -4.924851 -17.32995 -4.743796 -7.376266 10.96491 -23.18347 -0 4.335539 -0 8.39843 -15.15996 26.51644 -2.641298 -3.854871 5.002959 3.195191 9.545553 -8.124882 1.629834 21.45595 6.060392 2.49577 -26.67977 9.800026 5.853629 -19.73293 11.16124 85.88141 33.9014 -20.38465 -0 0 16.41407 -5.2009 7.007321 3.004498 6.411492 -20.74143 -0.5319423 -95.83557 26.50688 24.10261 0 0 -14.15391 9.823577 17.67947 2.786044
0.3332671 103.4503 1.521507 1.762692 -1.973886 0.1081394 2.423684 -12.97006 9.295068 -0 37.99101 -0 -4.617794 -17.34386 -4.61386 -7.401839 11.44784 -23.54651 -0 4.329089 -0 8.228764 -16.33037 26.65456 -2.639545 -3.848392 4.998004 3.159855 9.541068 -8.079784 1.598771 21.52021 6.054228 2.482047 -26.57405 9.746202 5.872089 -19.67049 11.14846 85.7794 33.90626 -20.21564 -0 0 16.35501 -5.454814 7.116941 3.157311 6.378954 -20.73524 -0.5163645 -95.81678 26.43945 24.07082 0 0 -13.86061 9.78828 17.71042 2.762449
0.5609096 103.2992 3.122582 1.116103 -1.151894 0.1461297 3.405224 -17.53536 8.158767 -0 35.93505 -0 -5.678402 -15.27905 -3.794026 -7.043192 11.97172 -23.18618 -0 5.217924 -0 7.010301 -18.39713 26.04551 -2.292821 -3.232596 4.890878 3.284728 9.70873 -8.333442 1.425369 21.0035 6.345933 2.737189 -26.61931 9.55139 5.818204 -19.37334 11.4009 86.56598 34.40016 -21.06819 -0 0 15.39587 -5.566804 7.606338 3.415507 6.271178 -20.90936 -0.7982399 -94.59684 25.9674 23.10377 0 0 -16.31511 9.433846 16.15632 3.342497
0.7420159 103.1066 4.796982 0.6050034 -0.06513749 0.2387533 4.219029 -21.33235 8.006569 -0 34.43566 -0 -5.826086 -14.16407 -3.353727 -6.788553 12.24919 -22.90997 -0 5.35053 -0 5.95964 -20.00146 25.39187 -2.103293 -2.934126 4.836925 3.369941 9.77649 -8.511136 1.337889 20.70402 6.496191 2.876105 -26.66908 9.444584 5.763502 -19.23958 11.52705 87.06507 34.60739 -21.68166 -0 0 14.90117 -5.525138 7.813145 3.468161 6.236516 -21.05334 -0.9715064 -93.97443 25.8908 22.61194 0 0 -17.85868 9.129326 15.32126 3.840256
0.9090499 102.816 6.690689 0.08714896 1.018541 0.3754898 5.15278 -25.26994 7.778643 -0 31.70336 -0 -5.894196 -12.66468 -2.872155 -6.5378 12.42313 -22.15106 -0 5.546332 -0 5.67083 -21.2214 24.73708 -1.912598 -2.69868 4.80282 3.47174 9.810505 -8.738863 1.266003 20.37223 6.637889 3.020571 -26.77381 9.352223 5.681846 -19.17668 11.63968 87.64598 34.75226 -22.48913 -0 0 14.5126 -5.27843 7.909025 3.366414 6.239722 -21.25376 -1.166908 -93.45962 26.10397 22.24723 0 0 -19.68284 8.662362 14.5447 4.612336
1.082243 102.4076 8.891705 -0.3755666 2.082506 0.5616422 6.023951 -28.85265 7.55794 -0 28.40773 -0 -5.835423 -11.08352 -2.431413 -6.335886 12.60317 -21.22446 -0 5.745182 -0 5.546183 -22.23452 24.00455 -1.733499 -2.520883 4.77388 3.544505 9.831868 -8.952824 1.194652 20.06461 6.781881 3.172078 -26.83058 9.254884 5.609563 -19.1252 11.73396 88.1787 34.86253 -23.25744 -0 0 14.18384 -5.127342 8.04709 3.289669 6.276965 -21.49253 -1.364538 -92.99181 26.37154 21.90902 0 0 -21.41934 8.172839 13.86169 5.412703
1.273988 101.8718 11.50813 -0.7885492 3.102778 0.810921 6.819294 -32.0345 7.24844 -0 24.58361 -0 -5.771905 -9.303118 -1.996501 -6.183679 12.88021 -20.13252 -0 6.183369 -0 5.514249 -23.00757 23.13338 -1.554296 -2.38704 4.748933 3.583192 9.844697 -9.157956 1.119981 19.77702 6.930924 3.336847 -26.82562 9.139992 5.546356 -19.07633 11.8136 88.69028 34.94306 -24.01956 -0 0 13.90144 -5.083709 8.240348 3.238982 6.341477 -21.7742 -1.577165 -92.56724 26.73104 21.59985 0 0 -23.11652 7.589103 13.25662 6.333227
1.489334 101.2266 14.63635 -1.167298 4.032331 1.146256 7.495519 -34.57679 6.852069 -0 20.68697 -0 -5.782694 -7.36184 -1.587017 -6.050198 13.29625 -18.97885 -0 7.066827 -0 5.156916 -23.51917 21.94922 -1.378117 -2.276314 4.714508 3.579244 9.865358 -9.335593 1.036592 19.5314 7.084792 3.50926 -26.7221 8.997869 5.503583 -18.99313 11.88156 89.15775 35.00551 -24.71037 -0 0 13.61324 -5.261994 8.551565 3.282507 6.419332 -22.08286 -1.799722 -92.14135 27.07043 21.25222 0 0 -24.6434 6.959749 12.71883 7.281011
1.727733 100.5225 18.36467 -1.536319 4.76324 1.587453 8.036559 -36.18465 6.357558 -0 17.19299 -0 -5.975166 -5.305985 -1.220789 -5.882487 13.84204 -17.80742 -0 8.745304 -0 4.155734 -23.59478 20.28287 -1.211538 -2.177331 4.667469 3.532353 9.901345 -9.476061 0.945992 19.35191 7.228851 3.674051 -26.5066 8.8235 5.484942 -18.86325 11.937 89.5738 35.0455 -25.30451 -0 0 13.30818 -5.685975 8.980626 3.431991 6.488125 -22.39267 -2.026227 -91.73321 27.37526 20.87733 0 0 -25.89408 6.269007 12.26892 8.25864
1.984655 99.85156 22.75198 -1.921041 5.155338 2.13233 8.459819 -36.53977 5.799228 -0 14.65021 -0 -6.426145 -3.303535 -0.9312703 -5.611879 14.40669 -16.64304 -0 11.65501 -0 2.314813 -22.94678 18.04852 -1.065153 -2.072807 4.606181 3.448776 9.961295 -9.568996 0.8494975 19.26166 7.346048 3.811116 -26.17385 8.614126 5.49169 -18.67683 11.98132 89.92459 35.06358 -25.76355 -0 0 12.97026 -6.374244 9.520344 3.704389 6.518802 -22.66866 -2.245827 -91.35217 27.60457 20.48136 0 0 -26.75676 5.527533 11.91068 9.234481
2.25437 99.35182 27.80181 -2.331755 5.064155 2.72972 8.818051 -35.39833 5.246924 -0 13.50375 -0 -7.170262 -1.662841 -0.7538025 -5.179297 14.72582 -15.4638 -0 16.31016 -0 -0.1971808 -21.2054 15.39137 -0.9522816 -1.950725 4.539426 3.335516 10.04644 -9.603784 0.7511607 19.28052 7.416641 3.899922 -25.73155 8.370992 5.519788 -18.44483 12.01446 90.18767 35.06348 -26.04617 -0 0 12.61609 -7.307122 10.13353 4.097726 6.481096 -22.86981 -2.444981 -91.03483 27.75946 20.11497 0 0 -27.14423 4.727311 11.65339 10.21045
2.534985 99.19434 33.434 -2.743405 4.423848 3.262074 9.15188 -32.72391 4.787862 -0 13.8379 -0 -8.14524 -0.8084923 -0.7200514 -4.575787 14.35259 -14.21786 -0 23.11235 -0 -2.805944 -18.14926 12.73486 -0.8869717 -1.803976 4.484308 3.198277 10.15073 -9.568933 0.655518 19.41734 7.426401 3.925559 -25.1982 8.0999 5.55889 -18.19552 12.03639 90.32776 35.06104 -26.09868 -0 0 12.28418 -8.454309 10.77541 4.608913 6.352404 -22.9589 -2.607511 -90.81352 27.85113 19.83986 0 0 -27.01893 3.870958 11.49292 11.18405
2.83302 99.53234 39.47329 -3.066646 3.315838 3.566701 9.387309 -28.71163 4.457974 -0 15.13151 -0 -9.156796 -1.112615 -0.838785 -3.881565 12.73075 -12.87608 -0 32.00808 -0 -4.815764 -14.01037 10.59449 -0.8816434 -1.633952 4.464734 3.038354 10.25946 -9.452731 0.5672764 19.66663 7.371115 3.883103 -24.60056 7.811519 5.592099 -17.97278 12.04637 90.29868 35.08487 -25.85923 -0 0 12.03337 -9.786123 11.40445 5.236898 6.125271 -22.91135 -2.716722 -90.70837 27.90197 19.71763 0 0 -26.41031 2.972191 11.41306 12.1489
3.160663 100.4155 45.67606 -3.132524 1.967487 3.51662 9.289971 -23.68811 4.195382 -0 16.30616 -0 -9.907431 -2.598161 -1.046195 -3.257374 9.418365 -11.4935 -0 42.08996 -0 -5.869933 -9.59434 9.277248 -0.9439558 -1.448357 4.505623 2.852901 10.35503 -9.246577 0.4899932 20.00536 7.260246 3.780108 -23.96661 7.519453 5.597976 -17.8245 12.04485 90.05404 35.16998 -25.26963 -0 0 11.92314 -11.29702 12.00284 5.992733 5.811 -22.72422 -2.761168 -90.70624 27.92051 19.77886 0 0 -25.4223 2.066374 11.3767 13.07946
3.520964 101.7194 51.80263 -2.745327 0.6166973 3.115396 8.616378 -18.00926 3.871062 -0 16.2545 -0 -10.16306 -4.717181 -1.167618 -2.853017 4.404865 -10.17151 -0 51.54767 -0 -6.040475 -5.975772 8.811824 -1.074503 -1.257662 4.628814 2.635291 10.42527 -8.946886 0.4267879 20.39562 7.115908 3.636137 -23.31834 7.238964 5.555907 -17.79259 12.0353 89.55828 35.34358 -24.28931 -0 0 12.00259 -13.01155 12.58345 6.898109 5.436344 -22.41549 -2.741701 -90.76436 27.89263 20.01839 0 0 -24.21192 1.2035 11.33062 13.93827
3.892456 103.1629 57.6987 -1.845434 -0.6821307 2.507725 7.414952 -12.05391 3.408034 -0 14.59546 -0 -9.946038 -6.550899 -1.046894 -2.652154 -1.705447 -8.916764 -0 58.26559 -0 -5.52815 -3.910853 9.134814 -1.26596 -1.071855 4.851749 2.37741 10.46997 -8.554969 0.3822603 20.79164 6.96682 3.478212 -22.67144 6.987211 5.452679 -17.90756 12.02515 88.7922 35.60757 -22.90439 -0 0 12.30936 -14.96307 13.17613 7.970984 5.034875 -22.0131 -2.673955 -90.8352 27.78478 20.41571 0 0 -22.94211 0.4371335 11.2197 14.68701
4.238731 104.4166 63.32191 -0.6654778 -2.064754 1.883388 6.12906 -6.209133 2.886662 -0 11.97467 -0 -9.498708 -7.523442 -0.7780204 -2.382629 -7.940755 -7.590155 -0 60.71449 -0 -4.543272 -3.417492 10.21804 -1.504215 -0.9004525 5.188643 2.073724 10.49975 -8.07538 0.3632421 21.15034 6.837275 3.331774 -22.04293 6.781801 5.285728 -18.18845 12.02396 87.75064 35.92482 -21.1274 -0 0 12.87621 -17.15039 13.79472 9.203509 4.636512 -21.53998 -2.581712 -90.90066 27.56073 20.96879 0 0 -21.72464 -0.1861407 11.00544 15.29318
